<svg width="64" height="64" viewBox="0 0 64 64" fill="none" xmlns="http://www.w3.org/2000/svg">
<path d="M31.125 1.58115C31.5056 0.893398 32.4944 0.893398 32.875 1.58115L36.1094 7.4261C36.409 7.96751 37.1234 8.10963 37.6074 7.72408L42.8324 3.56182C43.4472 3.07206 44.3607 3.45044 44.4492 4.23149L45.2006 10.8693C45.2702 11.4841 45.8759 11.8888 46.4706 11.7178L52.8907 9.87193C53.6461 9.65473 54.3453 10.3539 54.1281 11.1093L52.2822 17.5294C52.1112 18.1241 52.5159 18.7298 53.1307 18.7994L59.7685 19.5508C60.5496 19.6393 60.9279 20.5528 60.4382 21.1676L56.2759 26.3926C55.8904 26.8766 56.0325 27.591 56.5739 27.8906L62.4188 31.125C63.1066 31.5056 63.1066 32.4944 62.4188 32.875L56.5739 36.1094C56.0325 36.409 55.8904 37.1234 56.2759 37.6074L60.4382 42.8324C60.9279 43.4472 60.5496 44.3607 59.7685 44.4492L53.1307 45.2006C52.5159 45.2702 52.1112 45.8759 52.2822 46.4706L54.1281 52.8907C54.3453 53.6461 53.6461 54.3453 52.8907 54.1281L46.4706 52.2822C45.8759 52.1112 45.2702 52.5159 45.2006 53.1307L44.4492 59.7685C44.3607 60.5496 43.4472 60.9279 42.8324 60.4382L37.6074 56.2759C37.1234 55.8904 36.409 56.0325 36.1094 56.5739L32.875 62.4188C32.4944 63.1066 31.5056 63.1066 31.125 62.4188L27.8906 56.5739C27.591 56.0325 26.8766 55.8904 26.3926 56.2759L21.1676 60.4382C20.5528 60.9279 19.6393 60.5496 19.5508 59.7685L18.7994 53.1307C18.7298 52.5159 18.1241 52.1112 17.5294 52.2822L11.1093 54.1281C10.3539 54.3453 9.65473 53.6461 9.87193 52.8907L11.7178 46.4706C11.8888 45.8759 11.4841 45.2702 10.8693 45.2006L4.23149 44.4492C3.45044 44.3607 3.07206 43.4472 3.56182 42.8324L7.72408 37.6074C8.10963 37.1234 7.96751 36.409 7.4261 36.1094L1.58115 32.875C0.893398 32.4944 0.893398 31.5056 1.58115 31.125L7.4261 27.8906C7.96751 27.591 8.10963 26.8766 7.72408 26.3926L3.56182 21.1676C3.07206 20.5528 3.45044 19.6393 4.23149 19.5508L10.8693 18.7994C11.4841 18.7298 11.8888 18.1241 11.7178 17.5294L9.87193 11.1093C9.65473 10.3539 10.3539 9.65473 11.1093 9.87193L17.5294 11.7178C18.1241 11.8888 18.7298 11.4841 18.7994 10.8693L19.5508 4.23149C19.6393 3.45044 20.5528 3.07206 21.1676 3.56182L26.3926 7.72408C26.8766 8.10963 27.591 7.96751 27.8906 7.4261L31.125 1.58115Z" fill="#2CDA9D"/>
<path d="M40 26L29 37L24 32" stroke="white" stroke-width="2" stroke-linecap="round" stroke-linejoin="round"/>
</svg>
